name p11_grf_mean_speed_1.8
datacolumns 13
datarows 51
range 0.0000000000 0.5000000000
endheader
time	grf_x_l_mean	grf_x_l_var	grf_y_l_mean	grf_y_l_var	grf_z_l_mean	grf_z_l_var	grf_x_r_mean	grf_x_r_var	grf_y_r_mean	grf_y_r_var	grf_z_r_mean	grf_z_r_var
0.0000000000	248.5741054280	1.0000000000	995.3902021212	1.0000000000	0.0000000000	0.0000000000	11.1089697248	1.0000000000	11.6428208245	1.0000000000	0.0000000000	0.0000000000
0.0100000000	263.4598924753	1.0000000000	984.5835992706	1.0000000000	0.0000000000	0.0000000000	13.6085302777	1.0000000000	64.2181215361	1.0000000000	0.0000000000	0.0000000000
0.0200000000	275.1725508198	1.0000000000	956.3112499332	1.0000000000	0.0000000000	0.0000000000	10.4185264027	1.0000000000	153.6766981738	1.0000000000	0.0000000000	0.0000000000
0.0300000000	282.1786146919	1.0000000000	907.4836468999	1.0000000000	0.0000000000	0.0000000000	-5.5152192115	1.0000000000	276.0201291733	1.0000000000	0.0000000000	0.0000000000
0.0400000000	281.8546222671	1.0000000000	836.3272781067	1.0000000000	0.0000000000	0.0000000000	-40.7270973387	1.0000000000	407.3625683313	1.0000000000	0.0000000000	0.0000000000
0.0500000000	270.0770572842	1.0000000000	741.0841611601	1.0000000000	0.0000000000	0.0000000000	-89.6277847156	1.0000000000	521.1548893514	1.0000000000	0.0000000000	0.0000000000
0.0600000000	245.2145932022	1.0000000000	625.0362766658	1.0000000000	0.0000000000	0.0000000000	-135.4337857428	1.0000000000	613.9723323168	1.0000000000	0.0000000000	0.0000000000
0.0700000000	209.6834713007	1.0000000000	500.3280457253	1.0000000000	0.0000000000	0.0000000000	-171.7450426647	1.0000000000	692.5075917130	1.0000000000	0.0000000000	0.0000000000
0.0800000000	165.8855796867	1.0000000000	378.3743385039	1.0000000000	0.0000000000	0.0000000000	-202.6987530619	1.0000000000	761.6964131316	1.0000000000	0.0000000000	0.0000000000
0.0900000000	119.4142416854	1.0000000000	266.7039358485	1.0000000000	0.0000000000	0.0000000000	-227.5528566301	1.0000000000	825.8044719744	1.0000000000	0.0000000000	0.0000000000
0.1000000000	78.6649999569	1.0000000000	173.5986858636	1.0000000000	0.0000000000	0.0000000000	-241.8891397489	1.0000000000	887.5887393877	1.0000000000	0.0000000000	0.0000000000
0.1100000000	47.0787974441	1.0000000000	105.4230840212	1.0000000000	0.0000000000	0.0000000000	-246.9188137439	1.0000000000	946.6069564622	1.0000000000	0.0000000000	0.0000000000
0.1200000000	24.3081066430	1.0000000000	58.8769879220	1.0000000000	0.0000000000	0.0000000000	-245.4806488012	1.0000000000	997.2561093574	1.0000000000	0.0000000000	0.0000000000
0.1300000000	10.0093658520	1.0000000000	28.1617138356	1.0000000000	0.0000000000	0.0000000000	-236.2410834911	1.0000000000	1034.0457507063	1.0000000000	0.0000000000	0.0000000000
0.1400000000	2.2445584241	1.0000000000	11.0004445248	1.0000000000	0.0000000000	0.0000000000	-221.3677089047	1.0000000000	1056.7539929954	1.0000000000	0.0000000000	0.0000000000
0.1500000000	-1.6282137555	1.0000000000	3.9054210486	1.0000000000	0.0000000000	0.0000000000	-205.0797795461	1.0000000000	1065.6792635130	1.0000000000	0.0000000000	0.0000000000
0.1600000000	-2.8753964435	1.0000000000	1.3573287100	1.0000000000	0.0000000000	0.0000000000	-186.1717228380	1.0000000000	1059.0576658971	1.0000000000	0.0000000000	0.0000000000
0.1700000000	-2.5842521022	1.0000000000	0.2387407815	1.0000000000	0.0000000000	0.0000000000	-165.0604055496	1.0000000000	1037.7827166868	1.0000000000	0.0000000000	0.0000000000
0.1800000000	-2.2234390083	1.0000000000	1.1609973375	1.0000000000	0.0000000000	0.0000000000	-144.3679651848	1.0000000000	1006.0161344675	1.0000000000	0.0000000000	0.0000000000
0.1900000000	-1.3965316642	1.0000000000	2.9363032329	1.0000000000	0.0000000000	0.0000000000	-124.1430709122	1.0000000000	965.2512390484	1.0000000000	0.0000000000	0.0000000000
0.2000000000	-0.6717062990	1.0000000000	3.1823271061	1.0000000000	0.0000000000	0.0000000000	-104.0047386358	1.0000000000	916.0412654108	1.0000000000	0.0000000000	0.0000000000
0.2100000000	-0.6953522002	1.0000000000	2.6149762358	1.0000000000	0.0000000000	0.0000000000	-86.3816262457	1.0000000000	861.5318419854	1.0000000000	0.0000000000	0.0000000000
0.2200000000	-0.4043328763	1.0000000000	2.8921232884	1.0000000000	0.0000000000	0.0000000000	-71.4797315987	1.0000000000	805.1783672890	1.0000000000	0.0000000000	0.0000000000
0.2300000000	0.0945296280	1.0000000000	2.9612629054	1.0000000000	0.0000000000	0.0000000000	-57.5268872788	1.0000000000	749.0526377074	1.0000000000	0.0000000000	0.0000000000
0.2400000000	-0.1457067349	1.0000000000	1.8166226867	1.0000000000	0.0000000000	0.0000000000	-46.1075380696	1.0000000000	695.5316052526	1.0000000000	0.0000000000	0.0000000000
0.2500000000	-0.3688622824	1.0000000000	1.2382308933	1.0000000000	0.0000000000	0.0000000000	-37.4113969013	1.0000000000	647.6589020045	1.0000000000	0.0000000000	0.0000000000
0.2600000000	0.2013281247	1.0000000000	1.5763862249	1.0000000000	0.0000000000	0.0000000000	-29.5130379164	1.0000000000	606.3770824720	1.0000000000	0.0000000000	0.0000000000
0.2700000000	-0.0934072549	1.0000000000	1.1921801685	1.0000000000	0.0000000000	0.0000000000	-22.3551318037	1.0000000000	571.2234684285	1.0000000000	0.0000000000	0.0000000000
0.2800000000	-0.7347015054	1.0000000000	0.4857032321	1.0000000000	0.0000000000	0.0000000000	-16.7396143941	1.0000000000	543.2737161920	1.0000000000	0.0000000000	0.0000000000
0.2900000000	-0.3251752791	1.0000000000	0.8632898138	1.0000000000	0.0000000000	0.0000000000	-11.7555545484	1.0000000000	523.9786776798	1.0000000000	0.0000000000	0.0000000000
0.3000000000	-0.1806480996	1.0000000000	1.4598826235	1.0000000000	0.0000000000	0.0000000000	-6.9341886245	1.0000000000	511.9354265138	1.0000000000	0.0000000000	0.0000000000
0.3100000000	-0.6652571182	1.0000000000	1.0385924714	1.0000000000	0.0000000000	0.0000000000	-2.9698941897	1.0000000000	504.6984633431	1.0000000000	0.0000000000	0.0000000000
0.3200000000	-0.5246527804	1.0000000000	0.5883537264	1.0000000000	0.0000000000	0.0000000000	0.6785821061	1.0000000000	503.1346407784	1.0000000000	0.0000000000	0.0000000000
0.3300000000	-0.2334350118	1.0000000000	0.8977909663	1.0000000000	0.0000000000	0.0000000000	4.5012031510	1.0000000000	508.7398375189	1.0000000000	0.0000000000	0.0000000000
0.3400000000	-0.5386476837	1.0000000000	1.0501066553	1.0000000000	0.0000000000	0.0000000000	8.2884561082	1.0000000000	520.1943823980	1.0000000000	0.0000000000	0.0000000000
0.3500000000	-0.5058496591	1.0000000000	0.5609756457	1.0000000000	0.0000000000	0.0000000000	12.6171530731	1.0000000000	536.0721132930	1.0000000000	0.0000000000	0.0000000000
0.3600000000	-0.2317982410	1.0000000000	0.4970973671	1.0000000000	0.0000000000	0.0000000000	18.0596650072	1.0000000000	557.1814456984	1.0000000000	0.0000000000	0.0000000000
0.3700000000	-0.5659006030	1.0000000000	1.1008520726	1.0000000000	0.0000000000	0.0000000000	24.8197895710	1.0000000000	583.9195178146	1.0000000000	0.0000000000	0.0000000000
0.3800000000	-0.6909071916	1.0000000000	1.3522838652	1.0000000000	0.0000000000	0.0000000000	33.2466636921	1.0000000000	615.0652070685	1.0000000000	0.0000000000	0.0000000000
0.3900000000	-0.4940234293	1.0000000000	1.3767763082	1.0000000000	0.0000000000	0.0000000000	43.9373900853	1.0000000000	650.0029548999	1.0000000000	0.0000000000	0.0000000000
0.4000000000	-0.7527876276	1.0000000000	1.7084100859	1.0000000000	0.0000000000	0.0000000000	57.2526670674	1.0000000000	688.2396289424	1.0000000000	0.0000000000	0.0000000000
0.4100000000	-1.0175290318	1.0000000000	1.6741389165	1.0000000000	0.0000000000	0.0000000000	73.1862817511	1.0000000000	728.1365841351	1.0000000000	0.0000000000	0.0000000000
0.4200000000	-0.9796825220	1.0000000000	0.8045126162	1.0000000000	0.0000000000	0.0000000000	91.3636472795	1.0000000000	768.4822471564	1.0000000000	0.0000000000	0.0000000000
0.4300000000	0.0000000000	1.0000000000	0.0000000000	1.0000000000	0.0000000000	0.0000000000	111.1584969696	1.0000000000	809.0766066420	1.0000000000	0.0000000000	0.0000000000
0.4400000000	0.0000000000	1.0000000000	0.0000000000	1.0000000000	0.0000000000	0.0000000000	132.0456289483	1.0000000000	848.3705311916	1.0000000000	0.0000000000	0.0000000000
0.4500000000	0.0000000000	1.0000000000	0.0000000000	1.0000000000	0.0000000000	0.0000000000	153.0072239863	1.0000000000	883.5319173397	1.0000000000	0.0000000000	0.0000000000
0.4600000000	0.0000000000	1.0000000000	0.0000000000	1.0000000000	0.0000000000	0.0000000000	173.0714881424	1.0000000000	913.3562752356	1.0000000000	0.0000000000	0.0000000000
0.4700000000	0.0000000000	1.0000000000	0.0000000000	1.0000000000	0.0000000000	0.0000000000	192.0617852060	1.0000000000	937.5932168512	1.0000000000	0.0000000000	0.0000000000
0.4800000000	0.0000000000	1.0000000000	0.0000000000	1.0000000000	0.0000000000	0.0000000000	209.8863648077	1.0000000000	954.2664426217	1.0000000000	0.0000000000	0.0000000000
0.4900000000	4.7734239513	1.0000000000	4.6688460346	1.0000000000	0.0000000000	0.0000000000	226.4920561252	1.0000000000	960.5346041949	1.0000000000	0.0000000000	0.0000000000
0.5000000000	4.1835953874	1.0000000000	46.7189020884	1.0000000000	0.0000000000	0.0000000000	242.1859654419	1.0000000000	954.7795653344	1.0000000000	0.0000000000	0.0000000000
